<?xml version="1.0" encoding="utf-8"?>
<!-- Generator: Adobe Illustrator 25.1.0, SVG Export Plug-In . SVG Version: 6.00 Build 0)  -->
<svg version="1.1" xmlns="http://www.w3.org/2000/svg" xmlns:xlink="http://www.w3.org/1999/xlink" x="0px" y="0px"
	 viewBox="0 0 98 465" style="enable-background:new 0 0 98 465;" xml:space="preserve">
<style type="text/css">
	.st0{display:none;}
	.st1{display:inline;opacity:0.3;}
	.st2{fill:#FF0000;}
	.st3{fill:#5DB06C;}
	.st4{fill:#666666;}
	.st5{fill:#2E3192;}
	.st6{display:inline;}
	.st7{fill:none;stroke:#000000;stroke-width:2;stroke-miterlimit:10;}
	.st8{fill:none;stroke:#000000;stroke-width:2;stroke-linejoin:round;stroke-miterlimit:10;}
	.st9{fill:#FFFFFF;}
</style>
<g id="가이드_1_" class="st0">
	<g id="가이드" class="st1">
		<rect x="52" y="6" class="st2" width="40" height="40"/>
	</g>
	<g id="가이드_2_" class="st1">
		<rect x="6" y="6" class="st2" width="40" height="40"/>
	</g>
	<g id="가이드_6_" class="st1">
		<rect x="52" y="52" class="st2" width="40" height="40"/>
	</g>
	<g id="가이드_4_" class="st1">
		<rect x="6" y="52" class="st2" width="40" height="40"/>
	</g>
	<g id="가이드_7_" class="st1">
		<rect x="6" y="98" class="st2" width="40" height="40"/>
	</g>
	<g id="가이드_10_" class="st1">
		<rect x="52" y="98" class="st2" width="40" height="40"/>
	</g>
	<g id="가이드_12_" class="st1">
		<rect x="6" y="144" class="st2" width="40" height="40"/>
	</g>
	<g id="가이드_14_" class="st1">
		<rect x="52" y="144" class="st2" width="40" height="40"/>
	</g>
	<g id="가이드_16_" class="st1">
		<rect x="6" y="282" class="st2" width="40" height="40"/>
	</g>
	<g id="가이드_18_" class="st1">
		<rect x="52" y="282" class="st2" width="40" height="40"/>
	</g>
	<g id="가이드_15_" class="st1">
		<rect x="6" y="190" class="st2" width="40" height="40"/>
	</g>
	<g id="가이드_22_" class="st1">
		<rect x="52" y="190" class="st2" width="40" height="40"/>
	</g>
	<g id="가이드_24_" class="st1">
		<rect x="6" y="236" class="st2" width="40" height="40"/>
	</g>
	<g id="가이드_26_" class="st1">
		<rect x="52" y="236" class="st2" width="40" height="40"/>
	</g>
	<g id="가이드_30_" class="st1">
		<rect x="6" y="328" class="st2" width="40" height="40"/>
	</g>
	<g id="가이드_23_" class="st1">
		<rect x="52" y="328" class="st2" width="40" height="40"/>
	</g>
	<g id="가이드_34_" class="st1">
		<rect x="6" y="374" class="st2" width="40" height="40"/>
	</g>
	<g id="가이드_31_" class="st1">
		<rect x="52" y="374" class="st2" width="40" height="40"/>
	</g>
	<g id="가이드_38_" class="st1">
		<rect x="6" y="419" class="st2" width="40" height="40"/>
	</g>
	<g id="가이드_35_" class="st1">
		<rect x="52" y="419" class="st2" width="40" height="40"/>
	</g>
</g>
<g id="작업공간">
</g>
<g id="하트">
	<path id="클릭후" class="st2" d="M81.48,8.1c-3.85-0.53-7.33,1.14-9.41,3.92c-2.08-2.78-5.57-4.45-9.41-3.92
		c-4.45,0.61-8.5,4.24-8.52,8.74C54.07,35,72.07,44,72.07,44s18-9,17.93-27.17C89.98,12.34,85.93,8.71,81.48,8.1z"/>
	<path id="클릭전" class="st2" d="M34,10c0.38,0,0.76,0.03,1.14,0.08c3.26,0.45,6.78,3.16,6.79,6.76
		C41.99,31.26,29.49,39.65,26,41.71c-3.49-2.06-15.99-10.45-15.93-24.87c0.01-3.6,3.54-6.31,6.79-6.76C17.24,10.03,17.62,10,18,10
		c2.54,0,4.87,1.17,6.4,3.22l1.6,2.14l1.6-2.14C29.13,11.17,31.46,10,34,10 M34,8c-3.28,0-6.18,1.58-8,4.02C24.18,9.58,21.28,8,18,8
		c-0.46,0-0.94,0.03-1.41,0.1c-4.45,0.61-8.5,4.24-8.52,8.74C8,35,26,44,26,44s18-9,17.93-27.17c-0.02-4.49-4.07-8.12-8.52-8.74
		C34.94,8.03,34.46,8,34,8L34,8z"/>
</g>
<g id="댓글">
	<g id="클릭후_1_">
		<path class="st3" d="M86.94,82H60h-1h-1.94C55.37,82,54,80.4,54,78.42V57.58C54,55.6,55.37,54,57.06,54h29.87
			c1.69,0,3.06,1.6,3.06,3.58v20.85C90,80.4,88.63,82,86.94,82z"/>
		<polygon class="st3" points="54,90 60,82 66,82 		"/>
	</g>
	<g id="클릭전_1_">
		<path class="st3" d="M40.94,54H11.06C9.37,54,8,55.6,8,57.58v20.85C8,80.4,9.37,82,11.06,82H13h1h1.25l1.5-2H14h-1h-1.94
			c-0.5,0-1.06-0.65-1.06-1.58V57.58c0-0.93,0.56-1.58,1.06-1.58h29.87c0.5,0,1.06,0.65,1.06,1.58v20.85c0,0.93-0.56,1.58-1.06,1.58
			H20.5l-3,2h23.44c1.69,0,3.06-1.6,3.06-3.58V57.58C44,55.6,42.63,54,40.94,54z"/>
		<polygon class="st3" points="13,85 15.25,82 14,82 8,90 20,82 17.5,82 		"/>
	</g>
</g>
<g id="휴지통">
	<g>
		<path class="st4" d="M42,104v2H10v-2H42 M44,102H8v6h36V102L44,102z"/>
		<rect x="20" y="100" class="st4" width="12" height="2"/>
		<path class="st4" d="M37,110v24H14v-24H37 M39,108H12v28h27V108L39,108z"/>
		<path class="st4" d="M18,113v18V113 M20,111h-4v22h4V111L20,111z"/>
		<path class="st4" d="M23,113v18V113 M25,111h-4v22h4V111L25,111z"/>
		<path class="st4" d="M28,113v18V113 M30,111h-4v22h4V111L30,111z"/>
		<path class="st4" d="M33,113v18V113 M35,111h-4v22h4V111L35,111z"/>
	</g>
	<g>
		<path class="st5" d="M88,104v2H56v-2H88 M90,102H54v6h36V102L90,102z"/>
		<rect x="66" y="100" class="st5" width="12" height="2"/>
		<path class="st5" d="M83,110v24H60v-24H83 M85,108H58v28h27V108L85,108z"/>
		<path class="st5" d="M64,113v18V113 M66,111h-4v22h4V111L66,111z"/>
		<path class="st5" d="M69,113v18V113 M71,111h-4v22h4V111L71,111z"/>
		<path class="st5" d="M74,113v18V113 M76,111h-4v22h4V111L76,111z"/>
		<path class="st5" d="M79,113v18V113 M81,111h-4v22h4V111L81,111z"/>
	</g>
</g>
<g id="내보내기">
	<g>
		<path class="st4" d="M30,151.04L41.25,163L30,174.96v-5.88v-2.1l-2.1,0.1c-8.33,0.42-13.5,2.51-16.7,5
			c3.07-11.21,11.45-13.22,16.82-13.27L30,158.8v-1.98V151.04 M28,146v10.82c-6.16,0.06-19.66,2.69-19.98,24.42
			c0.22-2.63,2.29-11.27,19.98-12.16V180l16-17L28,146L28,146z"/>
	</g>
	<g>
		<path d="M90,163.76l-16-17v10.82c-6.16,0.06-19.66,2.69-19.98,24.42c0.22-2.63,2.29-11.27,19.98-12.16v10.92L90,163.76z"/>
	</g>
</g>
<g id="연필" class="st0">
	<g class="st6">
		<g>
			<path d="M117,287v25.33l-4,5.33l-4-5.33V287H117 M119,285h-12v28l6,8l6-8V285L119,285z"/>
		</g>
		<path class="st7" d="M108,313h10H108z"/>
		<path class="st8" d="M108,290h10H108z"/>
	</g>
</g>
<g id="작성">
	<g>
		<path d="M38,226H10v-28h16c0-0.67,0-1.33,0-2H8v32h32v-18c-0.67,0-1.33,0-2,0V226z"/>
		<g>
			<g>
				<path d="M37.71,194.83l3.46,3.46l-12.78,12.78l-4.03,0.58l0.58-4.03L37.71,194.83 M37.71,192l-14.67,14.67L22,214l7.33-1.05
					L44,198.29L37.71,192L37.71,192z"/>
			</g>
			<path class="st7" d="M23.57,207.19l5.24,5.24L23.57,207.19z"/>
			<path class="st7" d="M35.62,195.14l5.24,5.24L35.62,195.14z"/>
		</g>
	</g>
</g>
<g id="이미지_추가">
	<g>
		<g>
			<path d="M34.49,240.32l1.02,29.27l-22.42,0.78l-1.02-29.27L34.49,240.32 M35.46,238.29c-0.01,0-0.02,0-0.04,0l-24.42,0.85
				c-0.55,0.02-0.98,0.48-0.96,1.03l1.09,31.27c0.02,0.54,0.46,0.97,1,0.97c0.01,0,0.02,0,0.04,0l24.42-0.85
				c0.55-0.02,0.98-0.48,0.96-1.03l-1.09-31.27C36.44,238.71,36,238.29,35.46,238.29L35.46,238.29z"/>
		</g>
		<path d="M40.77,273.84l-24.94-1.76c-0.55-0.04-0.97-0.52-0.93-1.07l2.25-31.92c0.04-0.55,0.52-0.97,1.07-0.93l24.94,1.76
			c0.55,0.04,0.97,0.52,0.93,1.07l-2.25,31.92C41.8,273.46,41.32,273.88,40.77,273.84z"/>
		<path class="st9" d="M39.1,254.99l-7.96-0.83l0.83-7.96c0.06-0.55-0.34-1.04-0.89-1.1l-0.99-0.1c-0.55-0.06-1.04,0.34-1.1,0.89
			l-0.83,7.96l-7.96-0.83c-0.55-0.06-1.04,0.34-1.1,0.89l-0.1,0.99c-0.06,0.55,0.34,1.04,0.89,1.1l7.96,0.83l-0.83,7.96
			c-0.06,0.55,0.34,1.04,0.89,1.1l0.99,0.1c0.55,0.06,1.04-0.34,1.1-0.89l0.83-7.96l7.96,0.83c0.55,0.06,1.04-0.34,1.1-0.89
			l0.1-0.99C40.05,255.54,39.65,255.05,39.1,254.99z"/>
	</g>
</g>
</svg>
