<?xml version="1.0" encoding="utf-8"?>
<!-- Generator: Adobe Illustrator 25.1.0, SVG Export Plug-In . SVG Version: 6.00 Build 0)  -->
<svg version="1.1" id="레이어_1" xmlns="http://www.w3.org/2000/svg" xmlns:xlink="http://www.w3.org/1999/xlink" x="0px"
	 y="0px" viewBox="0 0 98 465" style="enable-background:new 0 0 98 465;" xml:space="preserve">
<style type="text/css">
	.st0{display:none;}
	.st1{display:inline;opacity:0.3;}
	.st2{fill:#FF0000;}
	.st3{fill:#5DB06C;}
	.st4{fill:#666666;}
	.st5{fill:#2E3192;}
	.st6{display:inline;}
	.st7{fill:none;stroke:#000000;stroke-width:2;stroke-miterlimit:10;}
	.st8{fill:none;stroke:#000000;stroke-width:2;stroke-linejoin:round;stroke-miterlimit:10;}
	.st9{fill:#FFFFFF;}
</style>
<g id="가이드_1_" class="st0">
	<g id="가이드" class="st1">
		<rect x="52" y="6" class="st2" width="40" height="40"/>
	</g>
	<g id="가이드_2_" class="st1">
		<rect x="6" y="6" class="st2" width="40" height="40"/>
	</g>
	<g id="가이드_6_" class="st1">
		<rect x="52" y="52" class="st2" width="40" height="40"/>
	</g>
	<g id="가이드_4_" class="st1">
		<rect x="6" y="52" class="st2" width="40" height="40"/>
	</g>
	<g id="가이드_7_" class="st1">
		<rect x="6" y="98" class="st2" width="40" height="40"/>
	</g>
	<g id="가이드_10_" class="st1">
		<rect x="52" y="98" class="st2" width="40" height="40"/>
	</g>
	<g id="가이드_12_" class="st1">
		<rect x="6" y="144" class="st2" width="40" height="40"/>
	</g>
	<g id="가이드_14_" class="st1">
		<rect x="52" y="144" class="st2" width="40" height="40"/>
	</g>
	<g id="가이드_16_" class="st1">
		<rect x="6" y="282" class="st2" width="40" height="40"/>
	</g>
	<g id="가이드_18_" class="st1">
		<rect x="52" y="282" class="st2" width="40" height="40"/>
	</g>
	<g id="가이드_15_" class="st1">
		<rect x="6" y="190" class="st2" width="40" height="40"/>
	</g>
	<g id="가이드_22_" class="st1">
		<rect x="52" y="190" class="st2" width="40" height="40"/>
	</g>
	<g id="가이드_24_" class="st1">
		<rect x="6" y="236" class="st2" width="40" height="40"/>
	</g>
	<g id="가이드_26_" class="st1">
		<rect x="52" y="236" class="st2" width="40" height="40"/>
	</g>
	<g id="가이드_30_" class="st1">
		<rect x="6" y="328" class="st2" width="40" height="40"/>
	</g>
	<g id="가이드_23_" class="st1">
		<rect x="52" y="328" class="st2" width="40" height="40"/>
	</g>
	<g id="가이드_34_" class="st1">
		<rect x="6" y="374" class="st2" width="40" height="40"/>
	</g>
	<g id="가이드_31_" class="st1">
		<rect x="52" y="374" class="st2" width="40" height="40"/>
	</g>
	<g id="가이드_38_" class="st1">
		<rect x="6" y="419" class="st2" width="40" height="40"/>
	</g>
	<g id="가이드_35_" class="st1">
		<rect x="52" y="419" class="st2" width="40" height="40"/>
	</g>
</g>
<g id="하트">
	<path id="클릭후" class="st2" d="M81.5,8.1c-3.8-0.5-7.3,1.1-9.4,3.9c-2.1-2.8-5.6-4.4-9.4-3.9c-4.5,0.6-8.5,4.2-8.5,8.7
		C54.1,35,72.1,44,72.1,44s18-9,17.9-27.2C90,12.3,85.9,8.7,81.5,8.1z"/>
	<path id="클릭전" class="st2" d="M34,10c0.4,0,0.8,0,1.1,0.1c3.3,0.4,6.8,3.2,6.8,6.8C42,31.3,29.5,39.7,26,41.7
		c-3.5-2.1-16-10.5-15.9-24.9c0-3.6,3.5-6.3,6.8-6.8c0.4,0,0.8-0.1,1.1-0.1c2.5,0,4.9,1.2,6.4,3.2l1.6,2.1l1.6-2.1
		C29.1,11.2,31.5,10,34,10 M34,8c-3.3,0-6.2,1.6-8,4c-1.8-2.4-4.7-4-8-4c-0.5,0-0.9,0-1.4,0.1c-4.4,0.6-8.5,4.2-8.5,8.7
		C8,35,26,44,26,44s18-9,17.9-27.2c0-4.5-4.1-8.1-8.5-8.7C34.9,8,34.5,8,34,8L34,8z"/>
</g>
<g id="댓글">
	<g id="클릭후_1_">
		<path class="st3" d="M86.9,82H60h-1h-1.9c-1.7,0-3.1-1.6-3.1-3.6V57.6c0-2,1.4-3.6,3.1-3.6H87c1.7,0,3.1,1.6,3.1,3.6v20.8
			C90,80.4,88.6,82,86.9,82z"/>
		<polygon class="st3" points="54,90 60,82 66,82 		"/>
	</g>
	<g id="클릭전_1_">
		<path class="st3" d="M40.9,54H11.1C9.4,54,8,55.6,8,57.6v20.8c0,2,1.4,3.6,3.1,3.6H13h1h1.2l1.5-2H14h-1h-1.9
			c-0.5,0-1.1-0.7-1.1-1.6V57.6c0-0.9,0.6-1.6,1.1-1.6H41c0.5,0,1.1,0.7,1.1,1.6v20.8c0,0.9-0.6,1.6-1.1,1.6H20.5l-3,2h23.4
			c1.7,0,3.1-1.6,3.1-3.6V57.6C44,55.6,42.6,54,40.9,54z"/>
		<polygon class="st3" points="13,85 15.2,82 14,82 8,90 20,82 17.5,82 		"/>
	</g>
</g>
<g id="휴지통">
	<g>
		<path class="st4" d="M42,104v2H10v-2H42 M44,102H8v6h36V102L44,102z"/>
		<rect x="20" y="100" class="st4" width="12" height="2"/>
		<path class="st4" d="M37,110v24H14v-24H37 M39,108H12v28h27V108L39,108z"/>
		<path class="st4" d="M18,113v18V113 M20,111h-4v22h4V111L20,111z"/>
		<path class="st4" d="M23,113v18V113 M25,111h-4v22h4V111L25,111z"/>
		<path class="st4" d="M28,113v18V113 M30,111h-4v22h4V111L30,111z"/>
		<path class="st4" d="M33,113v18V113 M35,111h-4v22h4V111L35,111z"/>
	</g>
	<g>
		<path class="st5" d="M88,104v2H56v-2H88 M90,102H54v6h36V102L90,102z"/>
		<rect x="66" y="100" class="st5" width="12" height="2"/>
		<path class="st5" d="M83,110v24H60v-24H83 M85,108H58v28h27V108L85,108z"/>
		<path class="st5" d="M64,113v18V113 M66,111h-4v22h4V111L66,111z"/>
		<path class="st5" d="M69,113v18V113 M71,111h-4v22h4V111L71,111z"/>
		<path class="st5" d="M74,113v18V113 M76,111h-4v22h4V111L76,111z"/>
		<path class="st5" d="M79,113v18V113 M81,111h-4v22h4V111L81,111z"/>
	</g>
</g>
<g id="내보내기">
	<g>
		<path class="st4" d="M30,151l11.2,12L30,175v-5.9V167l-2.1,0.1c-8.3,0.4-13.5,2.5-16.7,5c3.1-11.2,11.4-13.2,16.8-13.3h2v-2
			L30,151 M28,146v10.8c-6.2,0.1-19.7,2.7-20,24.4c0.2-2.6,2.3-11.3,20-12.2v11l16-17L28,146L28,146z"/>
	</g>
	<g>
		<path d="M90,163.8l-16-17v10.8c-6.2,0.1-19.7,2.7-20,24.4c0.2-2.6,2.3-11.3,20-12.2v10.9L90,163.8z"/>
	</g>
</g>
<g id="작성">
	<g>
		<path d="M38,226H10v-28h16c0-0.7,0-1.3,0-2H8v32h32v-18c-0.7,0-1.3,0-2,0V226z"/>
		<g>
			<g>
				<path d="M37.7,194.8l3.5,3.5l-12.8,12.8l-4,0.6l0.6-4L37.7,194.8 M37.7,192L23,206.7l-1,7.3l7.3-1.1L44,198.3L37.7,192L37.7,192
					z"/>
			</g>
			<path class="st7" d="M23.6,207.2l5.2,5.2L23.6,207.2z"/>
			<path class="st7" d="M35.6,195.1l5.2,5.2L35.6,195.1z"/>
		</g>
	</g>
</g>
<g id="이미지_추가">
	<g>
		<g>
			<path d="M34.5,240.3l1,29.3l-22.4,0.8l-1-29.3L34.5,240.3 M35.5,238.3C35.5,238.3,35.4,238.3,35.5,238.3L11,239.1
				c-0.6,0-1,0.5-1,1l1.1,31.3c0,0.5,0.5,1,1,1l0,0l24.4-0.9c0.5,0,1-0.5,1-1l-1.1-31.3C36.4,238.7,36,238.3,35.5,238.3L35.5,238.3z
				"/>
		</g>
		<path d="M40.8,273.8L15.9,272c-0.6,0-1-0.5-0.9-1.1l2.2-31.9c0-0.6,0.5-1,1.1-0.9l24.9,1.8c0.5,0,1,0.5,0.9,1.1l-2.2,31.9
			C41.8,273.5,41.3,273.9,40.8,273.8z"/>
		<path class="st9" d="M39.1,255l-8-0.8l0.8-8c0.1-0.6-0.3-1-0.9-1.1l-1-0.1c-0.5-0.1-1,0.3-1.1,0.9l-0.8,8l-8-0.8
			c-0.5-0.1-1,0.3-1.1,0.9l-0.1,1c-0.1,0.6,0.3,1,0.9,1.1l8,0.8l-0.8,8c-0.1,0.5,0.3,1,0.9,1.1l1,0.1c0.5,0.1,1-0.3,1.1-0.9l0.8-8
			l8,0.8c0.5,0.1,1-0.3,1.1-0.9l0.1-1C40,255.5,39.7,255.1,39.1,255z"/>
	</g>
</g>
<g>
	<circle id="XMLID_1_" cx="13" cy="302" r="4"/>
	<circle id="XMLID_2_" cx="39" cy="302" r="4"/>
	<circle id="XMLID_3_" cx="26" cy="302" r="4"/>
</g>
</svg>
